<svg width="147" height="44" viewBox="0 0 147 44" fill="none" xmlns="http://www.w3.org/2000/svg">
<path d="M58.1445 35V9.54688H63.418V30.6406H74.3867V35H58.1445ZM85.5495 35.3867C79.7839 35.3867 76.198 31.4141 76.198 25.5078C76.198 19.6016 79.7839 15.6641 85.5495 15.6641C91.3152 15.6641 94.9363 19.6016 94.9363 25.5078C94.9363 31.4141 91.3152 35.3867 85.5495 35.3867ZM85.5847 31.3438C88.2566 31.3438 89.6277 28.8477 89.6277 25.5078C89.6277 22.1328 88.2566 19.6367 85.5847 19.6367C82.8777 19.6367 81.4714 22.1328 81.4714 25.5078C81.4714 28.8477 82.8777 31.3438 85.5847 31.3438ZM106.064 42.5586C100.79 42.5586 97.5561 40.2031 97.2397 36.582H102.373C102.654 38.0938 104.095 38.7969 106.169 38.7969C108.595 38.7969 110.212 37.7773 110.212 35.1055V31.625H109.966C109.263 33.1719 107.576 34.7188 104.517 34.7188C100.193 34.7188 96.7475 31.6953 96.7475 25.332C96.7475 18.8633 100.298 15.6641 104.517 15.6641C107.716 15.6641 109.263 17.5625 109.966 19.1094H110.177V15.9102H115.345V35.2109C115.345 40.0625 111.478 42.5586 106.064 42.5586ZM106.134 30.8164C108.736 30.8164 110.212 28.7773 110.212 25.4023C110.212 21.9922 108.736 19.8125 106.134 19.8125C103.498 19.8125 102.091 22.0977 102.091 25.4023C102.091 28.707 103.498 30.8164 106.134 30.8164ZM118.668 35V15.9102H123.871V35H118.668ZM121.27 13.4141C119.688 13.4141 118.422 12.2188 118.422 10.7773C118.422 9.30078 119.688 8.10547 121.27 8.10547C122.817 8.10547 124.082 9.30078 124.082 10.7773C124.082 12.2188 122.817 13.4141 121.27 13.4141ZM132.397 23.9609V35H127.194V15.9102H132.151V19.25H132.362C133.241 17.0352 135.28 15.6641 138.093 15.6641C142.065 15.6641 144.702 18.3711 144.667 22.8359V35H139.499V23.75C139.499 21.3945 138.198 19.9883 136.054 19.9883C133.874 19.9883 132.397 21.4297 132.397 23.9609Z" fill="#222222"/>
<path d="M12.3203 13.2012H16.9251L21.9013 25.1371H22.0993L27.0755 13.2012H31.6803V30.8012H28.0658V19.2785H27.9172L23.2382 30.7282H20.7625L16.0834 19.2299H15.9348V30.8012H12.3203V13.2012Z" fill="url(#paint0_linear_892_13639)"/>
<path fill-rule="evenodd" clip-rule="evenodd" d="M0 8.8C0 3.9399 3.93989 0 8.8 0H35.2C40.0601 0 44 3.93989 44 8.8V35.2C44 40.0601 40.0601 44 35.2 44H8.8C3.9399 44 0 40.0601 0 35.2V8.8ZM8.8 3.52C5.88394 3.52 3.52 5.88394 3.52 8.8V35.2C3.52 38.1161 5.88394 40.48 8.8 40.48H35.2C38.1161 40.48 40.48 38.1161 40.48 35.2V8.8C40.48 5.88394 38.1161 3.52 35.2 3.52H8.8Z" fill="url(#paint1_linear_892_13639)"/>
<defs>
<linearGradient id="paint0_linear_892_13639" x1="10.6828" y1="7.68641" x2="38.4042" y2="29.7425" gradientUnits="userSpaceOnUse">
<stop stop-color="#D62BFF"/>
<stop offset="0.5" stop-color="#8C62FF"/>
<stop offset="1" stop-color="#4094FF"/>
</linearGradient>
<linearGradient id="paint1_linear_892_13639" x1="0" y1="0" x2="44" y2="44" gradientUnits="userSpaceOnUse">
<stop stop-color="#D62BFF"/>
<stop offset="0.5" stop-color="#8C62FF"/>
<stop offset="1" stop-color="#4094FF"/>
</linearGradient>
</defs>
</svg>
