<svg width="20" height="20" viewBox="0 0 20 20" fill="none" xmlns="http://www.w3.org/2000/svg">
<path d="M4 6.11111H16M8.5 9.22222V13.8889M11.5 9.22222V13.8889M4.75 6.11111L5.5 15.4444C5.5 15.857 5.65804 16.2527 5.93934 16.5444C6.22064 16.8361 6.60218 17 7 17H13C13.3978 17 13.7794 16.8361 14.0607 16.5444C14.342 16.2527 14.5 15.857 14.5 15.4444L15.25 6.11111M7.75 6.11111V3.77778C7.75 3.5715 7.82902 3.37367 7.96967 3.22781C8.11032 3.08194 8.30109 3 8.5 3H11.5C11.6989 3 11.8897 3.08194 12.0303 3.22781C12.171 3.37367 12.25 3.5715 12.25 3.77778V6.11111" stroke="#222222" stroke-width="1.5" stroke-linecap="round" stroke-linejoin="round"/>
</svg>
