<svg width="32" height="32" viewBox="0 0 32 32" fill="none" xmlns="http://www.w3.org/2000/svg">
<path d="M25.3333 4H6.66667C5.19391 4 4 5.19391 4 6.66667V25.3333C4 26.8061 5.19391 28 6.66667 28H25.3333C26.8061 28 28 26.8061 28 25.3333V6.66667C28 5.19391 26.8061 4 25.3333 4Z" stroke="#999999" stroke-width="1.5" stroke-linecap="round" stroke-linejoin="round"/>
<path d="M11.9948 14.6615C13.4676 14.6615 14.6615 13.4676 14.6615 11.9948C14.6615 10.522 13.4676 9.32812 11.9948 9.32812C10.522 9.32812 9.32812 10.522 9.32812 11.9948C9.32812 13.4676 10.522 14.6615 11.9948 14.6615Z" stroke="#999999" stroke-width="1.5" stroke-linecap="round" stroke-linejoin="round"/>
<path d="M28 20.0048L23.8853 15.8901C23.3853 15.3902 22.7071 15.1094 22 15.1094C21.2929 15.1094 20.6147 15.3902 20.1147 15.8901L8 28.0048" stroke="#999999" stroke-width="1.5" stroke-linecap="round" stroke-linejoin="round"/>
</svg>
