<svg width="20" height="20" viewBox="0 0 20 20" fill="none" xmlns="http://www.w3.org/2000/svg">
<path d="M15.4444 3H4.55556C3.69645 3 3 3.69645 3 4.55556V15.4444C3 16.3036 3.69645 17 4.55556 17H15.4444C16.3036 17 17 16.3036 17 15.4444V4.55556C17 3.69645 16.3036 3 15.4444 3Z" stroke="#222222" stroke-width="1.5" stroke-linecap="round" stroke-linejoin="round"/>
<path d="M7.5 9C8.32843 9 9 8.32843 9 7.5C9 6.67157 8.32843 6 7.5 6C6.67157 6 6 6.67157 6 7.5C6 8.32843 6.67157 9 7.5 9Z" fill="#222222"/>
<path d="M17 11.6574L14.3255 9.42382C14.0004 9.15245 13.5596 9 13.1 9C12.6404 9 12.1996 9.15245 11.8745 9.42382L4 16" stroke="#222222" stroke-width="1.5" stroke-linecap="round" stroke-linejoin="round"/>
</svg>
