<svg width="20" height="22" viewBox="0 0 20 22" fill="none" xmlns="http://www.w3.org/2000/svg">
<path d="M6 5C6 2.79086 7.79086 1 10 1V1C12.2091 1 14 2.79086 14 5V6H6V5Z" stroke="#222222" stroke-width="1.5" stroke-linecap="round" stroke-linejoin="round"/>
<path d="M1 8C1 6.89543 1.89543 6 3 6H17C18.1046 6 19 6.89543 19 8V19C19 20.1046 18.1046 21 17 21H3C1.89543 21 1 20.1046 1 19V8Z" stroke="#222222" stroke-width="1.5" stroke-linecap="round" stroke-linejoin="round"/>
<path fill-rule="evenodd" clip-rule="evenodd" d="M5.25 9C5.25 11.6234 7.37665 13.75 10 13.75C12.6234 13.75 14.75 11.6234 14.75 9H13.25C13.25 10.7949 11.7949 12.25 10 12.25C8.20507 12.25 6.75 10.7949 6.75 9H5.25Z" fill="#222222"/>
</svg>
