<svg width="92" height="31" viewBox="0 0 92 31" fill="none" xmlns="http://www.w3.org/2000/svg">
<path d="M90.5094 8.63312C90.3218 7.95312 89.806 7.53312 89.0651 7.53312C88.0148 7.53312 87.3021 8.39312 87.3021 9.91312C87.3021 11.4431 87.996 12.3131 89.0745 12.3131C90.0452 12.3131 90.6219 11.7281 90.6407 10.8131H89.1683V9.68312H92.0005V10.5831C92.0005 12.4831 90.7814 13.6431 89.0651 13.6431C87.1614 13.6431 85.8672 12.2231 85.8672 9.93312C85.8672 7.58312 87.2458 6.20312 89.037 6.20312C90.5657 6.20312 91.7473 7.20312 91.9349 8.63312H90.5094Z" fill="white"/>
<path d="M84.6528 6.20312V13.6431H83.4647L80.5585 8.91605H80.5037V13.6431H79.1328V6.20312H80.3392L83.2271 10.9302H83.2911V6.20312H84.6528Z" fill="white"/>
<path d="M77.2892 6.20312V13.6431H76.0625V6.20312H77.2892Z" fill="white"/>
<path d="M69.9297 7.47738V6.20312H75.4497V7.47738H73.3832V13.6431H71.9962V7.47738H69.9297Z" fill="white"/>
<path d="M64.4062 13.6431V6.20312H69.3028V7.47738H65.9175V9.286H69.051V10.5603H65.9175V12.3689H69.3129V13.6431H64.4062Z" fill="white"/>
<path d="M57.6641 13.6431V6.20312H59.1797V9.5018H59.2808L61.9382 6.20312H63.7671L61.0389 9.53263L63.7974 13.6431H61.9786L59.9476 10.5705L59.1797 11.5159V13.6431H57.6641Z" fill="white"/>
<path d="M51.5234 13.6431V6.20312H54.2786C55.8793 6.20312 56.7912 7.15882 56.7912 8.62832C56.7912 9.64567 56.3498 10.3856 55.5494 10.7452L57.0434 13.6431H55.433L54.0943 11.0021H52.9786V13.6431H51.5234ZM52.9786 9.74843H54.007C54.8704 9.74843 55.2875 9.36821 55.2875 8.62832C55.2875 7.87815 54.8704 7.4671 54.007 7.4671H52.9786V9.74843Z" fill="white"/>
<path d="M45.7467 13.6431H44.1719L46.612 6.20312H48.4882L50.9185 13.6431H49.3534L48.8284 11.927H46.2814L45.7467 13.6431ZM46.6508 10.7247H48.459L47.5744 7.87815H47.5258L46.6508 10.7247Z" fill="white"/>
<path d="M35.5781 6.20312H37.3287L39.2205 11.2488H39.2958L41.1875 6.20312H42.9381V13.6431H41.564V8.77219H41.5075L39.7287 13.6123H38.7875L37.0087 8.75163H36.9522V13.6431H35.5781V6.20312Z" fill="white"/>
<path d="M71.7734 24.7888V17.9688H74.3397C75.8307 17.9688 76.6801 18.9202 76.6801 20.2672C76.6801 21.6331 75.8126 22.5657 74.3036 22.5657H73.1289V24.7888H71.7734ZM73.1289 21.4258H74.0867C74.8909 21.4258 75.2795 20.9549 75.2795 20.2672C75.2795 19.589 74.8909 19.1274 74.0867 19.1274H73.1289V21.4258Z" fill="white"/>
<path d="M68.5347 17.9688H69.9263V22.3358C69.9263 23.8131 68.8204 24.7887 67.1616 24.7887C65.5029 24.7887 64.4062 23.8131 64.4062 22.3358V17.9688H65.7886V22.2243C65.7886 22.9955 66.3323 23.5623 67.1616 23.5623C68.0002 23.5623 68.5347 22.9955 68.5347 22.2243V17.9688Z" fill="white"/>
<path d="M55.8203 24.7888V17.9688H57.1844V20.9925H57.2753L59.667 17.9688H61.313L58.8577 21.0208L61.3403 24.7888H59.7034L57.8755 21.9722L57.1844 22.8388V24.7888H55.8203Z" fill="white"/>
<path d="M54.5825 17.9688V24.7888H53.3944L50.4882 20.4556H50.4334V24.7888H49.0625V17.9688H50.2689L53.1568 22.3019H53.2208V17.9688H54.5825Z" fill="white"/>
<path d="M43.278 24.7888H41.7031L44.1432 17.9688H46.0194L48.4498 24.7888H46.8846L46.3597 23.2156H43.8127L43.278 24.7888ZM44.1821 22.1135H45.9903L45.1056 19.5042H45.057L44.1821 22.1135Z" fill="white"/>
<path d="M35.5781 24.7888V17.9688H38.3333C39.934 17.9688 40.8459 18.8448 40.8459 20.1918C40.8459 21.1244 40.4045 21.8026 39.6041 22.1323L41.0981 24.7888H39.4877L38.149 22.3678H37.0333V24.7888H35.5781ZM37.0333 21.2186H38.0616C38.925 21.2186 39.3422 20.8701 39.3422 20.1918C39.3422 19.5042 38.925 19.1274 38.0616 19.1274H37.0333V21.2186Z" fill="white"/>
<path d="M8.59375 9.29688H11.8032L15.2714 17.7063H15.4094L18.8777 9.29688H22.0871V21.6969H19.5679V13.5786H19.4643L16.2032 21.6455H14.4777L11.2165 13.5444H11.113V21.6969H8.59375V9.29688Z" fill="url(#paint0_linear_1776_628)"/>
<path fill-rule="evenodd" clip-rule="evenodd" d="M0 6.2C0 2.77584 2.74617 0 6.13373 0H24.5349C27.9225 0 30.6687 2.77583 30.6687 6.2V24.8C30.6687 28.2242 27.9225 31 24.5349 31H6.13373C2.74617 31 0 28.2242 0 24.8V6.2ZM6.13373 2.48C4.10119 2.48 2.45349 4.1455 2.45349 6.2V24.8C2.45349 26.8545 4.10119 28.52 6.13373 28.52H24.5349C26.5675 28.52 28.2152 26.8545 28.2152 24.8V6.2C28.2152 4.1455 26.5675 2.48 24.5349 2.48H6.13373Z" fill="url(#paint1_linear_1776_628)"/>
<defs>
<linearGradient id="paint0_linear_1776_628" x1="8.59375" y1="9.29688" x2="20.9496" y2="22.7422" gradientUnits="userSpaceOnUse">
<stop stop-color="#D62BFF"/>
<stop offset="0.5" stop-color="#8C62FF"/>
<stop offset="1" stop-color="#4094FF"/>
</linearGradient>
<linearGradient id="paint1_linear_1776_628" x1="0" y1="0" x2="30.9982" y2="30.6669" gradientUnits="userSpaceOnUse">
<stop stop-color="#D62BFF"/>
<stop offset="0.5" stop-color="#8C62FF"/>
<stop offset="1" stop-color="#4094FF"/>
</linearGradient>
</defs>
</svg>
