<svg width="20" height="20" viewBox="0 0 20 20" fill="none" xmlns="http://www.w3.org/2000/svg">
<path d="M9.6356 3.73438H4.47458C4.0835 3.73438 3.70843 3.88965 3.43189 4.16603C3.15536 4.44242 3 4.81727 3 5.20814V15.5245C3 15.9154 3.15536 16.2902 3.43189 16.5666C3.70843 16.843 4.0835 16.9983 4.47458 16.9983H14.7966C15.1877 16.9983 15.5628 16.843 15.8393 16.5666C16.1159 16.2902 16.2712 15.9154 16.2712 15.5245V10.3663" stroke="#222222" stroke-width="1.5" stroke-linecap="round" stroke-linejoin="round"/>
<path d="M14.332 3.45784C14.6253 3.16469 15.0231 3 15.4379 3C15.8528 3 16.2506 3.16469 16.5439 3.45784C16.8372 3.75099 17.002 4.14859 17.002 4.56317C17.002 4.97774 16.8372 5.37534 16.5439 5.66849L9.89869 12.3108C9.72362 12.4856 9.50734 12.6136 9.26978 12.6829L7.15155 13.3019C7.08811 13.3204 7.02086 13.3215 6.95684 13.3051C6.89282 13.2887 6.83439 13.2554 6.78766 13.2087C6.74093 13.162 6.70762 13.1036 6.69122 13.0396C6.67482 12.9756 6.67593 12.9084 6.69443 12.845L7.31376 10.7279C7.38345 10.4907 7.51174 10.2748 7.68683 10.1001L14.332 3.45784Z" stroke="#222222" stroke-width="1.5" stroke-linecap="round" stroke-linejoin="round"/>
</svg>
