<svg width="24" height="24" viewBox="0 0 24 24" fill="none" xmlns="http://www.w3.org/2000/svg">
<path d="M12.9702 3C13.2348 3 13.4715 3.1647 13.5606 3.4113L14.1959 5.17258C14.4233 5.22898 14.6195 5.28658 14.7845 5.34538C14.9645 5.40958 15.1985 5.50858 15.4865 5.64238L16.966 4.85938C17.0867 4.79511 17.2251 4.77185 17.3602 4.79311C17.4952 4.81438 17.6197 4.87903 17.7148 4.97728L19.0162 6.32277C19.189 6.50187 19.2376 6.76376 19.1404 6.99236L18.4465 8.61865C18.5611 8.82985 18.6535 9.01104 18.7237 9.16224C18.7993 9.32604 18.8929 9.55404 19.0045 9.84624L20.6217 10.5392C20.8647 10.6427 21.015 10.8857 20.9988 11.1458L20.88 13.0133C20.8719 13.1346 20.8283 13.2509 20.7547 13.3477C20.6811 13.4445 20.5808 13.5175 20.466 13.5578L18.9343 14.1023C18.8905 14.3135 18.8443 14.4953 18.7957 14.6477C18.717 14.8839 18.6275 15.1163 18.5275 15.3443L19.297 17.0453C19.3517 17.1647 19.3666 17.2986 19.3393 17.4271C19.3121 17.5556 19.2442 17.672 19.1458 17.759L17.6824 19.0657C17.5862 19.1518 17.466 19.2062 17.3378 19.2217C17.2097 19.2371 17.0799 19.2129 16.966 19.1521L15.4577 18.353C15.222 18.4784 14.9785 18.5887 14.7287 18.6833L14.0699 18.9299L13.485 20.5498C13.4412 20.6682 13.3629 20.7707 13.2602 20.844C13.1575 20.9173 13.0351 20.9581 12.909 20.9611L11.199 20.9998C11.0695 21.0028 10.9422 20.9658 10.8344 20.8938C10.7267 20.8218 10.6438 20.7184 10.597 20.5975L9.90759 18.7733C9.67244 18.6927 9.43956 18.6057 9.20922 18.5123C9.02087 18.4307 8.83537 18.3428 8.65304 18.2486L6.94309 18.9793C6.83047 19.0276 6.7062 19.042 6.58551 19.0208C6.46483 18.9995 6.35296 18.9435 6.26362 18.8597L4.99826 17.6726C4.9037 17.5848 4.8393 17.4694 4.81424 17.3428C4.78919 17.2163 4.80477 17.085 4.85877 16.9679L5.59404 15.3659C5.4966 15.176 5.40595 14.9826 5.32225 14.7863C5.22476 14.5458 5.13472 14.3024 5.05226 14.0564L3.44132 13.5659C3.31037 13.5263 3.19616 13.4446 3.11642 13.3335C3.03668 13.2223 2.99587 13.0879 3.00033 12.9512L3.06333 11.2223C3.06801 11.1096 3.10332 11.0002 3.16548 10.906C3.22764 10.8118 3.31429 10.7364 3.41612 10.6877L5.10626 9.87594C5.18426 9.58914 5.25325 9.36474 5.31325 9.20274C5.39817 8.98517 5.49245 8.77137 5.59584 8.56195L4.86327 7.01396C4.80725 6.8965 4.79014 6.76423 4.81441 6.63637C4.83869 6.50852 4.90309 6.39173 4.99826 6.30297L6.26182 5.10958C6.35028 5.02584 6.46111 4.96954 6.58091 4.94749C6.70071 4.92545 6.82432 4.93861 6.93679 4.98538L8.64494 5.69097C8.83333 5.56558 9.00492 5.46238 9.15972 5.38138C9.34391 5.28418 9.5911 5.18038 9.90129 5.06998L10.4953 3.4131C10.5396 3.29213 10.62 3.18767 10.7256 3.11381C10.8311 3.03994 10.9568 3.00022 11.0857 3H12.9702ZM12.0216 9.31704C10.5214 9.31704 9.30551 10.5185 9.30551 12.0017C9.30551 13.4849 10.5214 14.6873 12.0216 14.6873C13.5219 14.6873 14.7368 13.4849 14.7368 12.0017C14.7368 10.5185 13.5219 9.31704 12.0216 9.31704Z" stroke="#222222" stroke-width="1.5"/>
</svg>
