<svg width="24" height="24" viewBox="0 0 24 24" fill="none" xmlns="http://www.w3.org/2000/svg">
<path d="M8 7C8 4.79086 9.79086 3 12 3V3C14.2091 3 16 4.79086 16 7V7C16 9.20914 14.2091 11 12 11V11C9.79086 11 8 9.20914 8 7V7Z" stroke="white" stroke-width="1.5" stroke-linecap="round" stroke-linejoin="round"/>
<path d="M19.9787 19.9386L20.7096 19.7704L19.9787 19.9386ZM4.93704 21.75H19.0637V20.25H4.93704V21.75ZM4.75293 20.1069C5.44833 17.0868 8.39383 14.75 12.0004 14.75V13.25C7.76321 13.25 4.15816 16.005 3.29117 19.7704L4.75293 20.1069ZM12.0004 14.75C15.6069 14.75 18.5524 17.0868 19.2478 20.1069L20.7096 19.7704C19.8426 16.005 16.2375 13.25 12.0004 13.25V14.75ZM19.0637 21.75C20.0396 21.75 20.9666 20.8868 20.7096 19.7704L19.2478 20.1069C19.2525 20.1272 19.2506 20.1387 19.2487 20.1459C19.2463 20.1547 19.2404 20.1682 19.2264 20.184C19.1968 20.2174 19.1401 20.25 19.0637 20.25V21.75ZM4.93704 20.25C4.86068 20.25 4.80399 20.2174 4.77438 20.184C4.76038 20.1682 4.75448 20.1547 4.75208 20.1459C4.75012 20.1387 4.74825 20.1272 4.75293 20.1069L3.29117 19.7704C3.03412 20.8868 3.96112 21.75 4.93704 21.75V20.25Z" fill="white"/>
</svg>
