<svg width="18" height="20" viewBox="0 0 18 20" fill="none" xmlns="http://www.w3.org/2000/svg">
<path d="M5 5C5 2.79086 6.79086 1 9 1V1C11.2091 1 13 2.79086 13 5V5C13 7.20914 11.2091 9 9 9V9C6.79086 9 5 7.20914 5 5V5Z" stroke="#222222" stroke-width="1.5" stroke-linecap="round" stroke-linejoin="round"/>
<path d="M16.9787 17.9386L17.7096 17.7704L16.9787 17.9386ZM1.93704 19.75H16.0637V18.25H1.93704V19.75ZM1.75293 18.1069C2.44833 15.0868 5.39383 12.75 9.00038 12.75V11.25C4.76321 11.25 1.15816 14.005 0.291174 17.7704L1.75293 18.1069ZM9.00038 12.75C12.6069 12.75 15.5524 15.0868 16.2478 18.1069L17.7096 17.7704C16.8426 14.005 13.2375 11.25 9.00038 11.25V12.75ZM16.0637 19.75C17.0396 19.75 17.9666 18.8868 17.7096 17.7704L16.2478 18.1069C16.2525 18.1272 16.2506 18.1387 16.2487 18.1459C16.2463 18.1547 16.2404 18.1682 16.2264 18.184C16.1968 18.2174 16.1401 18.25 16.0637 18.25V19.75ZM1.93704 18.25C1.86068 18.25 1.80399 18.2174 1.77438 18.184C1.76038 18.1682 1.75448 18.1547 1.75208 18.1459C1.75012 18.1387 1.74825 18.1272 1.75293 18.1069L0.291174 17.7704C0.0341168 18.8868 0.961116 19.75 1.93704 19.75V18.25Z" fill="#222222"/>
</svg>
