<svg width="20" height="20" viewBox="0 0 20 20" fill="none" xmlns="http://www.w3.org/2000/svg">
<path d="M9.99961 17H17M13.4034 3.51202C13.713 3.18418 14.133 3 14.5709 3C15.0088 3 15.4287 3.18418 15.7384 3.51202C16.048 3.83987 16.222 4.28452 16.222 4.74816C16.222 5.2118 16.048 5.65645 15.7384 5.9843L6.39674 15.8759C6.2117 16.0718 5.98296 16.2151 5.73171 16.2926L3.49781 16.9827C3.43088 17.0034 3.35993 17.0046 3.29239 16.9863C3.22485 16.968 3.16321 16.9308 3.11391 16.8786C3.06461 16.8264 3.02947 16.7611 3.01217 16.6896C2.99486 16.6181 2.99604 16.543 3.01556 16.4721L3.66737 14.1069C3.74066 13.8412 3.87602 13.5993 4.06095 13.4036L13.4034 3.51202Z" stroke="white" stroke-width="1.5" stroke-linecap="round" stroke-linejoin="round"/>
</svg>
