<svg width="16" height="16" viewBox="0 0 16 16" fill="none" xmlns="http://www.w3.org/2000/svg">
<path d="M7.99961 15H15M11.4034 1.51202C11.713 1.18418 12.133 1 12.5709 1C13.0088 1 13.4287 1.18418 13.7384 1.51202C14.048 1.83987 14.222 2.28452 14.222 2.74816C14.222 3.2118 14.048 3.65645 13.7384 3.9843L4.39674 13.8759C4.2117 14.0718 3.98296 14.2151 3.73171 14.2926L1.49781 14.9827C1.43088 15.0034 1.35993 15.0046 1.29239 14.9863C1.22485 14.968 1.16321 14.9308 1.11391 14.8786C1.06461 14.8264 1.02947 14.7611 1.01217 14.6896C0.994865 14.6181 0.996035 14.543 1.01556 14.4721L1.66737 12.1069C1.74066 11.8412 1.87602 11.5993 2.06095 11.4036L11.4034 1.51202Z" stroke="#222222" stroke-width="1.5" stroke-linecap="round" stroke-linejoin="round"/>
</svg>
